HIERARCHY
ROOT COM
{
	OFFSET 0.000000 0.000000 0.000000 
	CHANNELS 6 Xposition Yposition Zposition Zrotation Xrotation Yrotation
	JOINT Spine
	{
		OFFSET 0.000000 0.078370 -0.028498 
		CHANNELS 3 Zrotation Xrotation Yrotation
		JOINT Spine1
		{
			OFFSET 0.000000 0.111469 -0.000097 
			CHANNELS 3 Zrotation Xrotation Yrotation
			JOINT Spine2
			{
				OFFSET 0.000000 0.121511 -0.000092 
				CHANNELS 3 Zrotation Xrotation Yrotation
				JOINT Neck
				{
					OFFSET 0.000000 0.119873 -0.000040 
					CHANNELS 3 Zrotation Xrotation Yrotation
					JOINT Head
					{
						OFFSET 0.000000 0.051518 0.000000 
						CHANNELS 3 Zrotation Xrotation Yrotation
						End Site
						{
							OFFSET 0.000000 0.000000 0.000000 
						}
					}
					JOINT Leftcollar
					{
						OFFSET 0.033237 -0.012095 0.015552 
						CHANNELS 3 Zrotation Xrotation Yrotation
						JOINT LeftArm
						{
							OFFSET 0.131452 0.000000 0.000000 
							CHANNELS 3 Zrotation Xrotation Yrotation
							JOINT LeftForeArm
							{
								OFFSET 0.000000 -0.219203 0.000000 
								CHANNELS 3 Zrotation Xrotation Yrotation
								JOINT LeftHand
								{
									OFFSET 0.000000 -0.193166 0.000000 
									CHANNELS 3 Zrotation Xrotation Yrotation
									End Site
									{
										OFFSET -0.023329 -0.077705 -0.004495 
									}
								}
							}
						}
					}
					JOINT RightCollar
					{
						OFFSET -0.033237 -0.012094 0.015552 
						CHANNELS 3 Zrotation Xrotation Yrotation
						JOINT RightArm
						{
							OFFSET -0.131452 0.000000 0.000000 
							CHANNELS 3 Zrotation Xrotation Yrotation
							JOINT RightForeArm
							{
								OFFSET 0.000000 -0.219203 0.000000 
								CHANNELS 3 Zrotation Xrotation Yrotation
								JOINT RightHand
								{
									OFFSET 0.000000 -0.193166 0.000000 
									CHANNELS 3 Zrotation Xrotation Yrotation
									End Site
									{
										OFFSET 0.023329 -0.077705 -0.004495 
									}
								}
							}
						}
					}
				}
			}
		}
	}
	JOINT LeftUpLeg
	{
		OFFSET 0.077678 0.000000 0.000000 
		CHANNELS 3 Zrotation Xrotation Yrotation
		JOINT LeftLeg
		{
			OFFSET 0.000000 -0.359164 0.000000 
			CHANNELS 3 Zrotation Xrotation Yrotation
			JOINT LeftFoot
			{
				OFFSET 0.000000 -0.337214 0.000000 
				CHANNELS 3 Zrotation Xrotation Yrotation
				JOINT LeftToe
				{
					OFFSET 0.000000 0.000000 0.122098 
					CHANNELS 3 Zrotation Xrotation Yrotation
					End Site
					{
						OFFSET 0.000000 0.000000 0.000000 
					}
				}
			}
		}
	}
	JOINT RightUpLeg
	{
		OFFSET -0.077678 0.000000 0.000000 
		CHANNELS 3 Zrotation Xrotation Yrotation
		JOINT RightLeg
		{
			OFFSET 0.000000 -0.359164 0.000000 
			CHANNELS 3 Zrotation Xrotation Yrotation
			JOINT RightFoot
			{
				OFFSET 0.000000 -0.337214 0.000000 
				CHANNELS 3 Zrotation Xrotation Yrotation
				JOINT RightToe
				{
					OFFSET 0.000000 0.000000 0.122098 
					CHANNELS 3 Zrotation Xrotation Yrotation
					End Site
					{
						OFFSET 0.000000 0.000000 0.000000 
					}
				}
			}
		}
	}
}
MOTION
Frames: 17
Frame Time: 0.033333
0.086179 0.731509 0.472186 3.385350 3.570700 267.352112 3.108430 2.808560 360.000000 360.000000 0.000000 352.213562 360.000000 360.000000 0.000000 360.000000 360.000000 0.000000 0.000000 360.000000 360.000000 0.000000 360.000000 360.000000 45.428299 357.127899 356.044525 360.000000 341.658295 0.000000 360.000000 0.000000 90.000000 0.000000 360.000000 360.000000 329.896912 6.529790 27.289301 360.000000 341.129700 0.000000 360.000000 0.000000 270.000000 7.715480 1.532150 61.813999 0.000000 2.869330 0.000000 0.000000 17.304199 346.921997 0.000000 360.000000 0.000000 349.444397 345.254486 327.765106 360.000000 46.966400 0.000000 360.000000 5.275930 1.866060 360.000000 0.000000 360.000000 
0.084452 0.732863 0.472482 4.458760 3.765600 262.392395 3.481170 2.472790 0.000000 360.000000 360.000000 351.891968 0.000000 0.000000 360.000000 0.000000 0.000000 360.000000 0.000000 0.000000 360.000000 0.000000 0.000000 360.000000 48.036499 356.529114 2.436020 0.000000 341.721313 0.000000 0.000000 0.000000 90.000000 0.000000 0.000000 360.000000 328.305695 7.981710 23.846701 360.000000 341.884094 0.000000 0.000000 0.000000 270.000000 7.970880 1.805790 64.594902 0.000000 3.261210 0.000000 0.000000 16.911301 348.761200 0.000000 360.000000 0.000000 350.041748 343.374115 325.180695 0.000000 42.415501 360.000000 0.000000 5.918680 2.282620 360.000000 0.000000 0.000000 
0.082499 0.733551 0.471186 5.854400 3.631420 257.800995 3.822200 1.697750 0.000000 0.000000 360.000000 351.616211 0.000000 0.000000 360.000000 360.000000 0.000000 360.000000 0.000000 0.000000 360.000000 0.000000 0.000000 360.000000 49.907299 355.899048 9.669990 0.000000 341.542908 0.000000 360.000000 0.000000 90.000000 0.000000 0.000000 360.000000 327.268097 9.631390 20.310699 0.000000 342.038696 360.000000 360.000000 360.000000 270.000000 7.945250 1.773500 66.697304 360.000000 3.170840 360.000000 360.000000 16.734900 350.904572 0.000000 0.000000 360.000000 351.174988 341.596893 322.438812 0.000000 37.051498 360.000000 0.000000 6.468500 3.673460 0.000000 360.000000 0.000000 
0.079888 0.733409 0.468233 6.626860 3.342480 253.619003 4.159480 1.424240 0.000000 0.000000 360.000000 351.351166 0.000000 0.000000 360.000000 360.000000 360.000000 360.000000 0.000000 0.000000 360.000000 0.000000 0.000000 360.000000 51.090500 355.399292 15.094100 360.000000 341.035614 360.000000 0.000000 0.000000 90.000000 0.000000 0.000000 360.000000 326.782990 11.242800 16.739201 360.000000 342.213593 360.000000 0.000000 0.000000 270.000000 7.713320 2.384790 68.318298 0.000000 2.743250 0.000000 360.000000 16.858999 353.159760 0.000000 0.000000 0.000000 352.503296 340.772614 319.044495 0.000000 31.771999 360.000000 0.000000 7.602780 6.460740 0.000000 0.000000 0.000000 
0.078185 0.732228 0.464013 7.832400 2.430990 250.095993 4.186320 0.578037 0.000000 0.000000 360.000000 350.848541 0.000000 0.000000 360.000000 360.000000 360.000000 0.000000 360.000000 360.000000 0.000000 360.000000 360.000000 0.000000 51.687000 354.735229 19.891899 0.000000 339.951996 0.000000 360.000000 0.000000 90.000000 360.000000 360.000000 0.000000 326.974915 12.628100 13.336700 360.000000 342.491608 0.000000 0.000000 0.000000 270.000000 7.337030 2.118180 69.253899 360.000000 2.766060 0.000000 0.000000 16.654301 355.393951 0.000000 0.000000 0.000000 353.791534 339.651001 315.100311 360.000000 26.511499 0.000000 0.000000 8.580430 8.439850 360.000000 0.000000 360.000000 
0.074807 0.730455 0.456813 8.199100 1.823070 247.134995 4.299860 0.271734 360.000000 0.000000 360.000000 350.157013 0.000000 360.000000 360.000000 360.000000 360.000000 360.000000 0.000000 360.000000 360.000000 0.000000 360.000000 360.000000 51.694698 354.283020 22.026800 0.000000 338.426208 0.000000 360.000000 0.000000 90.000000 0.000000 360.000000 360.000000 327.670807 14.381100 11.652600 0.000000 342.654388 0.000000 360.000000 0.000000 270.000000 7.251120 2.821010 70.843597 0.000000 2.812520 0.000000 360.000000 16.670799 356.392731 0.000000 360.000000 360.000000 355.685181 340.041199 311.524292 360.000000 21.271000 360.000000 0.000000 9.082740 8.809330 360.000000 0.000000 0.000000 
0.070717 0.727401 0.447941 8.465580 1.052160 245.054001 4.357630 359.762085 0.000000 0.000000 0.000000 349.203003 360.000000 360.000000 360.000000 0.000000 360.000000 0.000000 0.000000 0.000000 0.000000 0.000000 0.000000 0.000000 51.129398 353.686371 21.805201 0.000000 336.437286 0.000000 0.000000 0.000000 90.000000 0.000000 0.000000 0.000000 328.620697 16.631001 11.485000 360.000000 342.448212 360.000000 0.000000 0.000000 270.000000 7.183080 3.414480 72.319901 360.000000 3.099280 0.000000 360.000000 16.590401 356.738556 360.000000 360.000000 360.000000 357.300751 340.906708 307.681702 360.000000 16.744900 0.000000 0.000000 9.454970 9.101640 360.000000 360.000000 360.000000 
0.065858 0.724245 0.436441 8.459530 0.608871 243.688004 4.706600 359.386932 0.000000 360.000000 360.000000 347.900604 360.000000 360.000000 0.000000 360.000000 360.000000 360.000000 360.000000 0.000000 360.000000 360.000000 0.000000 360.000000 49.870098 353.195801 20.304800 0.000000 334.133301 0.000000 360.000000 0.000000 90.000000 360.000000 0.000000 360.000000 330.010010 18.973200 12.390500 0.000000 342.534698 0.000000 360.000000 360.000000 270.000000 7.633660 4.330590 73.370102 0.000000 3.634400 360.000000 360.000000 16.473000 356.815704 360.000000 360.000000 0.000000 358.914001 342.516998 305.101715 360.000000 13.200000 360.000000 0.000000 11.538800 10.879200 360.000000 360.000000 0.000000 
0.060212 0.721584 0.421464 8.285680 0.898316 242.078003 5.723630 359.182739 0.000000 0.000000 0.000000 347.638489 360.000000 360.000000 360.000000 0.000000 360.000000 0.000000 360.000000 0.000000 360.000000 360.000000 0.000000 360.000000 47.715698 352.324707 18.012600 0.000000 331.961090 0.000000 360.000000 0.000000 90.000000 360.000000 0.000000 360.000000 331.689697 21.867599 14.482800 0.000000 342.658112 0.000000 0.000000 0.000000 270.000000 9.127650 5.973880 74.878098 360.000000 4.710250 0.000000 0.000000 16.941700 356.277649 0.000000 0.000000 360.000000 1.173270 344.614502 303.776001 0.000000 10.153900 0.000000 360.000000 14.840500 13.573700 360.000000 0.000000 360.000000 
0.055273 0.721664 0.403555 8.410830 1.553220 239.669006 7.157240 358.941071 0.000000 360.000000 0.000000 347.987000 360.000000 0.000000 0.000000 0.000000 0.000000 0.000000 360.000000 360.000000 0.000000 360.000000 360.000000 0.000000 44.256599 352.354828 16.871099 360.000000 328.481689 0.000000 0.000000 0.000000 90.000000 360.000000 360.000000 0.000000 333.705109 23.897200 17.905300 360.000000 343.355896 0.000000 0.000000 0.000000 270.000000 11.507200 7.715560 76.406502 0.000000 6.335930 360.000000 360.000000 18.585501 356.403534 360.000000 0.000000 0.000000 3.965320 346.037292 306.737701 360.000000 9.090430 0.000000 0.000000 14.441900 13.470700 0.000000 360.000000 0.000000 
0.051186 0.722949 0.383527 8.365370 1.608020 237.005997 7.761250 358.655945 360.000000 360.000000 0.000000 348.444885 360.000000 360.000000 360.000000 360.000000 360.000000 360.000000 360.000000 360.000000 0.000000 360.000000 360.000000 0.000000 40.714199 353.678894 14.734200 0.000000 324.383698 0.000000 0.000000 0.000000 90.000000 360.000000 360.000000 0.000000 335.974915 25.056900 20.964300 0.000000 344.414307 0.000000 360.000000 0.000000 270.000000 14.050700 9.204500 75.101402 0.000000 9.419490 360.000000 360.000000 20.655300 358.638885 360.000000 360.000000 0.000000 5.917820 347.188385 309.878204 0.000000 8.991440 360.000000 360.000000 13.723900 13.535700 0.000000 0.000000 0.000000 
0.047390 0.723655 0.361105 7.658990 1.304470 235.054001 7.176650 358.360779 0.000000 0.000000 360.000000 348.548889 360.000000 360.000000 360.000000 360.000000 360.000000 360.000000 360.000000 360.000000 360.000000 360.000000 360.000000 360.000000 37.488701 354.835175 11.909500 0.000000 321.116791 360.000000 360.000000 0.000000 90.000000 360.000000 360.000000 360.000000 338.637390 26.184999 22.445101 360.000000 344.957489 360.000000 0.000000 360.000000 270.000000 17.139000 10.117400 70.101402 0.000000 14.699400 360.000000 0.000000 22.346100 3.234030 360.000000 0.000000 0.000000 7.059320 348.938995 310.457001 0.000000 8.928080 360.000000 360.000000 12.760200 15.129100 0.000000 360.000000 0.000000 
0.044720 0.723166 0.339315 6.518690 0.742520 232.869995 6.046360 358.335144 0.000000 360.000000 0.000000 349.109894 360.000000 0.000000 0.000000 360.000000 0.000000 0.000000 360.000000 360.000000 0.000000 360.000000 360.000000 0.000000 34.448200 355.363403 9.472790 360.000000 319.237396 360.000000 0.000000 0.000000 90.000000 360.000000 360.000000 0.000000 340.946594 27.024099 23.153200 0.000000 344.070709 360.000000 360.000000 360.000000 270.000000 20.064199 10.084000 62.810101 360.000000 21.512600 360.000000 360.000000 23.146500 8.296850 360.000000 0.000000 360.000000 7.455700 350.810547 309.723389 0.000000 9.215730 0.000000 360.000000 11.554800 18.128300 360.000000 0.000000 0.000000 
0.042840 0.722155 0.319113 5.445130 0.456346 230.059006 5.224170 358.607330 360.000000 0.000000 360.000000 350.254242 0.000000 0.000000 0.000000 0.000000 0.000000 0.000000 0.000000 0.000000 0.000000 0.000000 0.000000 0.000000 31.553801 355.994720 6.511510 360.000000 318.063904 360.000000 0.000000 0.000000 90.000000 0.000000 0.000000 0.000000 342.416992 26.506701 25.301399 0.000000 343.542908 360.000000 0.000000 360.000000 270.000000 22.719900 9.172300 54.914799 0.000000 29.333700 360.000000 0.000000 20.515200 8.186720 0.000000 0.000000 0.000000 7.648080 352.519104 309.531586 0.000000 10.323500 0.000000 360.000000 9.926230 21.260300 360.000000 0.000000 0.000000 
0.042051 0.721478 0.300923 4.246500 0.052984 226.376007 4.330750 359.192719 360.000000 360.000000 0.000000 352.020020 360.000000 360.000000 360.000000 360.000000 0.000000 360.000000 360.000000 0.000000 360.000000 360.000000 0.000000 360.000000 28.718599 356.912842 3.560660 0.000000 317.579102 360.000000 360.000000 0.000000 90.000000 360.000000 0.000000 360.000000 342.924194 24.236300 29.001301 0.000000 343.365112 360.000000 360.000000 360.000000 270.000000 23.775600 7.368560 48.080399 360.000000 36.634102 360.000000 0.000000 16.156099 5.369650 360.000000 0.000000 360.000000 7.926160 354.320648 311.514191 360.000000 10.441900 0.000000 0.000000 8.961120 23.018299 0.000000 0.000000 360.000000 
0.042087 0.721648 0.284269 3.484480 359.401398 222.888000 3.543690 359.388580 0.000000 360.000000 360.000000 353.550171 360.000000 360.000000 0.000000 360.000000 360.000000 360.000000 360.000000 360.000000 0.000000 360.000000 360.000000 0.000000 26.196699 358.141937 0.261151 360.000000 317.710388 360.000000 0.000000 0.000000 90.000000 360.000000 360.000000 0.000000 342.698212 20.879499 33.567402 0.000000 342.197906 360.000000 360.000000 360.000000 270.000000 23.493299 3.987620 41.614899 360.000000 42.407299 0.000000 0.000000 13.609300 6.313870 0.000000 0.000000 0.000000 8.368860 355.769714 313.523895 360.000000 9.744610 0.000000 360.000000 8.490000 24.600100 360.000000 0.000000 0.000000 
0.042640 0.722082 0.268396 2.878560 358.899780 219.317001 2.930840 359.661499 0.000000 0.000000 360.000000 355.113342 0.000000 0.000000 0.000000 0.000000 0.000000 0.000000 0.000000 0.000000 0.000000 0.000000 0.000000 0.000000 24.079901 359.542084 356.502045 360.000000 318.503296 360.000000 0.000000 0.000000 90.000000 0.000000 0.000000 0.000000 342.031006 16.766800 37.244301 0.000000 339.942810 0.000000 0.000000 0.000000 270.000000 22.806700 359.987885 35.731201 360.000000 47.363701 0.000000 0.000000 11.733100 7.532830 0.000000 0.000000 360.000000 9.073940 357.515106 314.742188 360.000000 8.066210 360.000000 0.000001 9.118260 27.236099 0.000000 0.000000 0.000000 
